<?xml version="1.0" encoding="UTF-8"?>
<svg version="1.1" xmlns="http://www.w3.org/2000/svg" width="509" height="490">
<path d="M0 0 C1.75539345 0.00333092 1.75539345 0.00333092 3.54624939 0.00672913 C4.51207191 0.00651009 4.51207191 0.00651009 5.49740601 0.00628662 C7.63473327 0.00698567 9.77197438 0.01477761 11.9092865 0.02259827 C13.3875931 0.02446248 14.86590032 0.02588637 16.34420776 0.02688599 C20.24211827 0.03071093 24.13999174 0.040541 28.03788757 0.05158997 C32.01259358 0.0618046 35.98730554 0.06638372 39.96202087 0.07142639 C47.76607425 0.0821633 55.57009707 0.09923942 63.37413025 0.12025452 C63.37413025 3.42025452 63.37413025 6.72025452 63.37413025 10.12025452 C64.83850525 10.09962952 66.30288025 10.07900452 67.81163025 10.05775452 C69.33245543 10.03633444 70.85484987 10.04845488 72.37413025 10.12025452 C73.37413025 11.12025452 73.37413025 11.12025452 73.48765564 13.25331116 C73.47980042 14.62797546 73.47980042 14.62797546 73.4717865 16.03041077 C73.46695251 17.51444397 73.46695251 17.51444397 73.46202087 19.02845764 C73.44945251 20.58983459 73.44945251 20.58983459 73.43663025 22.18275452 C73.43211853 23.22753967 73.42760681 24.27232483 73.42295837 25.34877014 C73.41112952 27.93928906 73.39319344 30.52977874 73.37413025 33.12025452 C70.07413025 33.12025452 66.77413025 33.12025452 63.37413025 33.12025452 C63.37413025 36.09025452 63.37413025 39.06025452 63.37413025 42.12025452 C66.67413025 42.12025452 69.97413025 42.12025452 73.37413025 42.12025452 C73.40095817 45.93280074 73.42088502 49.74516064 73.43663025 53.55775452 C73.44500916 54.6463678 73.45338806 55.73498108 73.46202087 56.85658264 C73.46524353 57.8910553 73.46846619 58.92552795 73.4717865 59.99134827 C73.47702332 60.94968567 73.48226013 61.90802307 73.48765564 62.895401 C73.37413025 65.12025452 73.37413025 65.12025452 72.37413025 66.12025452 C69.37082007 66.26218789 66.38195891 66.1626183 63.37413025 66.12025452 C63.37413025 69.42025452 63.37413025 72.72025452 63.37413025 76.12025452 C41.26413025 76.12025452 19.15413025 76.12025452 -3.62586975 76.12025452 C-3.66597856 57.44291897 -3.66597856 57.44291897 -3.67469788 49.50892639 C-3.68068608 44.08565803 -3.68778579 38.66240648 -3.7013092 33.239151 C-3.71213889 28.86902621 -3.71814676 24.49891944 -3.72074699 20.12878227 C-3.7226011 18.45774489 -3.72622143 16.78670854 -3.73159981 15.11567879 C-3.73881134 12.783279 -3.73986065 10.45095459 -3.73939514 8.11854553 C-3.74299042 7.42083542 -3.74658569 6.72312531 -3.75028992 6.00427246 C-3.73761107 0.1711679 -3.73761107 0.1711679 0 0 Z M20.37413025 12.12025452 C20.37413025 18.72025452 20.37413025 25.32025452 20.37413025 32.12025452 C30.27413025 32.12025452 40.17413025 32.12025452 50.37413025 32.12025452 C50.37413025 25.52025452 50.37413025 18.92025452 50.37413025 12.12025452 C40.47413025 12.12025452 30.57413025 12.12025452 20.37413025 12.12025452 Z M20.37413025 44.12025452 C20.37413025 50.72025452 20.37413025 57.32025452 20.37413025 64.12025452 C30.27413025 64.12025452 40.17413025 64.12025452 50.37413025 64.12025452 C50.37413025 57.52025452 50.37413025 50.92025452 50.37413025 44.12025452 C40.47413025 44.12025452 30.57413025 44.12025452 20.37413025 44.12025452 Z " fill="#E90C41" transform="translate(87.62586975097656,207.87974548339844)"/>
<path d="M0 0 C21.45 0 42.9 0 65 0 C65 18.15 65 36.3 65 55 C61.7 55 58.4 55 55 55 C55 58.3 55 61.6 55 65 C36.85 65 18.7 65 0 65 C0 61.04 0 57.08 0 53 C14.19 53 28.38 53 43 53 C43 50.36 43 47.72 43 45 C28.81 45 14.62 45 0 45 C0 41.37 0 37.74 0 34 C-3.63 34 -7.26 34 -11 34 C-11 26.41 -11 18.82 -11 11 C-7.37 11 -3.74 11 0 11 C0 7.37 0 3.74 0 0 Z M12 12 C12 18.6 12 25.2 12 32 C22.23 32 32.46 32 43 32 C43 25.4 43 18.8 43 12 C32.77 12 22.54 12 12 12 Z " fill="#E51849" transform="translate(351,229)"/>
<path d="M0 0 C7.59 0 15.18 0 23 0 C23 14.19 23 28.38 23 43 C32.9 43 42.8 43 53 43 C53 28.81 53 14.62 53 0 C60.59 0 68.18 0 76 0 C76 18.15 76 36.3 76 55 C54.55 55 33.1 55 11 55 C11 51.7 11 48.4 11 45 C8.5559375 45.0309375 8.5559375 45.0309375 6.0625 45.0625 C4.37500659 45.08386068 2.68608966 45.07205511 1 45 C0 44 0 44 -0.12025452 42.20933533 C-0.11803391 41.42990067 -0.11581329 40.650466 -0.11352539 39.84741211 C-0.11341209 38.52615578 -0.11341209 38.52615578 -0.11329651 37.1782074 C-0.10555458 35.74227989 -0.10555458 35.74227989 -0.09765625 34.27734375 C-0.0962413 33.30213272 -0.09482635 32.32692169 -0.09336853 31.32215881 C-0.08775133 28.19390857 -0.07519593 25.06572877 -0.0625 21.9375 C-0.05748722 19.82226666 -0.05292393 17.70703219 -0.04882812 15.59179688 C-0.03862531 10.39448199 -0.01905331 5.19732025 0 0 Z " fill="#E71245" transform="translate(255,229)"/>
<path d="M0 0 C11.22 0 22.44 0 34 0 C34 21.12 34 42.24 34 64 C40.93 64 47.86 64 55 64 C55 67.96 55 71.92 55 76 C33.55 76 12.1 76 -10 76 C-10 72.04 -10 68.08 -10 64 C-3.07 64 3.86 64 11 64 C11 46.84 11 29.68 11 12 C7.37 12 3.74 12 0 12 C0 8.04 0 4.08 0 0 Z " fill="#E71043" transform="translate(191,208)"/>
<path d="M0 0 C0.66 0.66 1.32 1.32 2 2 C1.67 2.99 1.34 3.98 1 5 C2.65 4.67 4.3 4.34 6 4 C7 6 7 6 7 12 C-10.16 12 -27.32 12 -45 12 C-45 8.7 -45 5.4 -45 2 C-43.67234619 1.97494385 -42.34469238 1.9498877 -40.97680664 1.92407227 C-36.06980055 1.83018481 -31.16294224 1.72991927 -26.25610352 1.62768555 C-24.12885993 1.58426577 -22.0015799 1.54259607 -19.87426758 1.50268555 C-16.82361849 1.44515293 -13.77315411 1.38141033 -10.72265625 1.31640625 C-9.76537125 1.29969376 -8.80808624 1.28298126 -7.8217926 1.26576233 C-6.50053627 1.2358445 -6.50053627 1.2358445 -5.15258789 1.20532227 C-4.37315323 1.18977798 -3.59371857 1.1742337 -2.79066467 1.15821838 C-0.97706647 1.19110881 -0.97706647 1.19110881 0 0 Z " fill="#E90C41" transform="translate(397,281)"/>
<path d="M0 0 C1.75539345 0.00333092 1.75539345 0.00333092 3.54624939 0.00672913 C4.51207191 0.00651009 4.51207191 0.00651009 5.49740601 0.00628662 C7.63473327 0.00698567 9.77197438 0.01477761 11.9092865 0.02259827 C13.3875931 0.02446248 14.86590032 0.02588637 16.34420776 0.02688599 C20.24211827 0.03071093 24.13999174 0.040541 28.03788757 0.05158997 C32.01259358 0.0618046 35.98730554 0.06638372 39.96202087 0.07142639 C47.76607425 0.0821633 55.57009707 0.09923942 63.37413025 0.12025452 C63.37413025 3.42025452 63.37413025 6.72025452 63.37413025 10.12025452 C64.83850525 10.09962952 66.30288025 10.07900452 67.81163025 10.05775452 C69.33245543 10.03633444 70.85484987 10.04845488 72.37413025 10.12025452 C73.37413025 11.12025452 73.37413025 11.12025452 73.48765564 13.25331116 C73.47980042 14.62797546 73.47980042 14.62797546 73.4717865 16.03041077 C73.46695251 17.51444397 73.46695251 17.51444397 73.46202087 19.02845764 C73.44945251 20.58983459 73.44945251 20.58983459 73.43663025 22.18275452 C73.43211853 23.22753967 73.42760681 24.27232483 73.42295837 25.34877014 C73.41112952 27.93928906 73.39319344 30.52977874 73.37413025 33.12025452 C70.07413025 33.12025452 66.77413025 33.12025452 63.37413025 33.12025452 C63.37413025 36.09025452 63.37413025 39.06025452 63.37413025 42.12025452 C66.67413025 42.12025452 69.97413025 42.12025452 73.37413025 42.12025452 C73.37413025 42.45025452 73.37413025 42.78025452 73.37413025 43.12025452 C69.74413025 43.12025452 66.11413025 43.12025452 62.37413025 43.12025452 C62.37413025 39.49025452 62.37413025 35.86025452 62.37413025 32.12025452 C65.67413025 32.12025452 68.97413025 32.12025452 72.37413025 32.12025452 C72.04413025 25.85025452 71.71413025 19.58025452 71.37413025 13.12025452 C68.40413025 12.79025452 65.43413025 12.46025452 62.37413025 12.12025452 C61.37413025 10.12025452 61.37413025 10.12025452 61.37413025 1.12025452 C40.91413025 1.12025452 20.45413025 1.12025452 -0.62586975 1.12025452 C-0.62586975 25.21025452 -0.62586975 49.30025452 -0.62586975 74.12025452 C20.16413025 74.45025452 40.95413025 74.78025452 62.37413025 75.12025452 C62.37413025 71.82025452 62.37413025 68.52025452 62.37413025 65.12025452 C65.67413025 65.12025452 68.97413025 65.12025452 72.37413025 65.12025452 C72.37413025 65.45025452 72.37413025 65.78025452 72.37413025 66.12025452 C69.40413025 66.12025452 66.43413025 66.12025452 63.37413025 66.12025452 C63.37413025 69.42025452 63.37413025 72.72025452 63.37413025 76.12025452 C41.26413025 76.12025452 19.15413025 76.12025452 -3.62586975 76.12025452 C-3.66597856 57.44291897 -3.66597856 57.44291897 -3.67469788 49.50892639 C-3.68068608 44.08565803 -3.68778579 38.66240648 -3.7013092 33.239151 C-3.71213889 28.86902621 -3.71814676 24.49891944 -3.72074699 20.12878227 C-3.7226011 18.45774489 -3.72622143 16.78670854 -3.73159981 15.11567879 C-3.73881134 12.783279 -3.73986065 10.45095459 -3.73939514 8.11854553 C-3.74299042 7.42083542 -3.74658569 6.72312531 -3.75028992 6.00427246 C-3.73761107 0.1711679 -3.73761107 0.1711679 0 0 Z " fill="#D65C78" transform="translate(87.62586975097656,207.87974548339844)"/>
<path d="M0 0 C7.59 0 15.18 0 23 0 C22.67 0.66 22.34 1.32 22 2 C15.4 2 8.8 2 2 2 C2 15.2 2 28.4 2 42 C4.97 42 7.94 42 11 42 C11 42.99 11 43.98 11 45 C9.35425434 45.02688151 7.70838587 45.04634123 6.0625 45.0625 C5.14597656 45.07410156 4.22945313 45.08570313 3.28515625 45.09765625 C1 45 1 45 0 44 C-0.0927833 42.61839885 -0.11747043 41.23211962 -0.11352539 39.84741211 C-0.11341209 38.52615578 -0.11341209 38.52615578 -0.11329651 37.1782074 C-0.10555458 35.74227989 -0.10555458 35.74227989 -0.09765625 34.27734375 C-0.0962413 33.30213272 -0.09482635 32.32692169 -0.09336853 31.32215881 C-0.08775133 28.19390857 -0.07519593 25.06572877 -0.0625 21.9375 C-0.05748722 19.82226666 -0.05292393 17.70703219 -0.04882812 15.59179688 C-0.03862531 10.39448199 -0.01905331 5.19732025 0 0 Z " fill="#CF3C5F" transform="translate(255,229)"/>
<path d="M0 0 C2.73510742 0.13647461 2.73510742 0.13647461 4.73510742 2.13647461 C4.87036133 4.29125977 4.87036133 4.29125977 4.71166992 6.92553711 C4.66010742 7.86655273 4.60854492 8.80756836 4.55541992 9.77709961 C4.4909668 10.76194336 4.42651367 11.74678711 4.36010742 12.76147461 C4.2750293 14.2503418 4.2750293 14.2503418 4.18823242 15.76928711 C4.04651501 18.22572227 3.89508465 20.68117196 3.73510742 23.13647461 C-0.78554686 23.18585161 -5.30604475 23.22218284 -9.8269043 23.24633789 C-11.36534356 23.25640579 -12.90376365 23.27006107 -14.44213867 23.28735352 C-16.65133391 23.31156778 -18.86027653 23.32294952 -21.06958008 23.33178711 C-21.75921844 23.34210968 -22.44885681 23.35243225 -23.15939331 23.36306763 C-24.86290164 23.36346939 -26.56575201 23.25838486 -28.26489258 23.13647461 C-30.26489258 21.13647461 -30.26489258 21.13647461 -30.5078125 19.18115234 C-30.50370361 18.40199463 -30.49959473 17.62283691 -30.49536133 16.82006836 C-30.49342773 15.97379883 -30.49149414 15.1275293 -30.48950195 14.25561523 C-30.47725586 13.37067383 -30.46500977 12.48573242 -30.45239258 11.57397461 C-30.45174805 10.68516602 -30.45110352 9.79635742 -30.45043945 8.88061523 C-30.40510355 2.27668558 -30.40510355 2.27668558 -29.26489258 1.13647461 C-27.41057396 0.97816764 -25.55059548 0.8852609 -23.69067383 0.82006836 C-22.54791992 0.77817383 -21.40516602 0.7362793 -20.2277832 0.69311523 C-19.0231543 0.65379883 -17.81852539 0.61448242 -16.57739258 0.57397461 C-15.39209961 0.53079102 -14.20680664 0.48760742 -12.9855957 0.44311523 C-8.65710616 0.29017365 -4.32727129 0.18088272 0 0 Z M-28.26489258 2.13647461 C-28.26489258 8.73647461 -28.26489258 15.33647461 -28.26489258 22.13647461 C-18.36489258 22.13647461 -8.46489258 22.13647461 1.73510742 22.13647461 C1.73510742 15.53647461 1.73510742 8.93647461 1.73510742 2.13647461 C-8.16489258 2.13647461 -18.06489258 2.13647461 -28.26489258 2.13647461 Z " fill="#D73058" transform="translate(136.264892578125,217.863525390625)"/>
<path d="M0 0 C4.02081788 -0.02921779 8.04160814 -0.04687188 12.0625 -0.0625 C13.7630957 -0.07506836 13.7630957 -0.07506836 15.49804688 -0.08789062 C21.10878867 -0.10424847 26.47649331 -0.01812097 32 1 C32 1.33 32 1.66 32 2 C22.1 2 12.2 2 2 2 C2 8.93 2 15.86 2 23 C17.345 22.505 17.345 22.505 33 22 C33 22.66 33 23.32 33 24 C22.44 24 11.88 24 1 24 C1 23.34 1 22.68 1 22 C0.34 22 -0.32 22 -1 22 C-1.02903577 18.89585298 -1.0468107 15.79174091 -1.0625 12.6875 C-1.07087891 11.80642578 -1.07925781 10.92535156 -1.08789062 10.01757812 C-1.09111328 9.17001953 -1.09433594 8.32246094 -1.09765625 7.44921875 C-1.10289307 6.66893311 -1.10812988 5.88864746 -1.11352539 5.0847168 C-1 3 -1 3 0 0 Z " fill="#DB2D58" transform="translate(106,249)"/>
<path d="M0 0 C6.93 0 13.86 0 21 0 C21 0.33 21 0.66 21 1 C15.06 1.33 9.12 1.66 3 2 C2.67 4.64 2.34 7.28 2 10 C21.47 10 40.94 10 61 10 C61 9.34 61 8.68 61 8 C61.99 8 62.98 8 64 8 C64 8.99 64 9.98 64 11 C42.88 11 21.76 11 0 11 C0 7.37 0 3.74 0 0 Z " fill="#D51C46" transform="translate(181,272)"/>
<path d="M0 0 C1.32 0 2.64 0 4 0 C3.83923477 0.72809372 3.67846954 1.45618744 3.51283264 2.2063446 C3.04313451 4.7650248 2.84585061 7.10329054 2.79467773 9.69848633 C2.77473251 10.59904251 2.75478729 11.49959869 2.73423767 12.42744446 C2.71752518 13.3859581 2.70081268 14.34447174 2.68359375 15.33203125 C2.66281265 16.32377853 2.64203156 17.31552582 2.62062073 18.33732605 C2.55539948 21.49564899 2.49636798 24.65405288 2.4375 27.8125 C2.39428869 29.95769056 2.35067357 32.10287302 2.30664062 34.24804688 C2.19974628 39.49861311 2.09792963 44.74925932 2 50 C1.01 50.495 1.01 50.495 0 51 C0 34.17 0 17.34 0 0 Z " fill="#D9224C" transform="translate(202,220)"/>
<path d="M0 0 C0.33 0 0.66 0 1 0 C1 3.3 1 6.6 1 10 C3.1965625 9.9690625 3.1965625 9.9690625 5.4375 9.9375 C6.95832518 9.91607993 8.48071962 9.92820036 10 10 C11 11 11 11 11.11352539 13.13305664 C11.10828857 14.04949951 11.10305176 14.96594238 11.09765625 15.91015625 C11.09443359 16.89951172 11.09121094 17.88886719 11.08789062 18.90820312 C11.07951172 19.94912109 11.07113281 20.99003906 11.0625 22.0625 C11.05798828 23.10728516 11.05347656 24.15207031 11.04882812 25.22851562 C11.03699927 27.81903454 11.01906319 30.40952422 11 33 C7.7 33 4.4 33 1 33 C1 35.97 1 38.94 1 42 C4.3 42 7.6 42 11 42 C11 42.33 11 42.66 11 43 C7.37 43 3.74 43 0 43 C0 39.37 0 35.74 0 32 C3.3 32 6.6 32 10 32 C9.67 25.73 9.34 19.46 9 13 C6.03 12.67 3.06 12.34 0 12 C0 8.04 0 4.08 0 0 Z " fill="#DD768F" transform="translate(150,208)"/>
<path d="M0 0 C0.99 0 1.98 0 3 0 C3 0.99 3 1.98 3 3 C-9.21 3 -21.42 3 -34 3 C-34 2.67 -34 2.34 -34 2 C-22.78 2 -11.56 2 0 2 C0 1.34 0 0.68 0 0 Z " fill="#DC1244" transform="translate(242,280)"/>
<path d="M0 0 C0.33 0 0.66 0 1 0 C1 3.3 1 6.6 1 10 C-0.32 10 -1.64 10 -3 10 C-3.33 8.35 -3.66 6.7 -4 5 C-3.01 4.67 -2.02 4.34 -1 4 C-0.26676204 1.98491642 -0.26676204 1.98491642 0 0 Z " fill="#DE1344" transform="translate(149,240)"/>
</svg>
